# xmcd
# 
# Track frame offsets:
#     150
#     10971
#     22650
#     35618
#     53720
#     63632
#     68701
#     86136
#     99410
#     109528
#     122489
#     129829
#     143266
#     155288
#     174246
#     187902
# 
# Disc length: 2676 seconds
# 
# Revision: 3
# Processed by: cddbd v1.4PL0 Copyright (c) Steve Scherf et al.
# Submitted via: BonkEnc v0.9
# 
DISCID=ba0a7210
DTITLE=Jack Johnson - On and On
DYEAR=2003
DGENRE=Alternative
TTITLE0=Times Like These
TTITLE1=The Horizon has been Defeated
TTITLE2=Traffic in the Sky
TTITLE3=Taylor
TTITLE4=Gone
TTITLE5=Cupid
TTITLE6=Wasting Time
TTITLE7=Holes to Heaven
TTITLE8=Dreams be Dreams
TTITLE9=Tomorrow Morning
TTITLE10=Fall Line
TTITLE11=Cookie Jar
TTITLE12=Rodeo Clowns
TTITLE13=Cocoon
TTITLE14=Mediocre Bad Guys
TTITLE15=Symbol in my Driveway
EXTD=
EXTT0=
EXTT1=
EXTT2=
EXTT3=
EXTT4=
EXTT5=
EXTT6=
EXTT7=
EXTT8=
EXTT9=
EXTT10=
EXTT11=
EXTT12=
EXTT13=
EXTT14=
EXTT15=
PLAYORDER=
